<svg xmlns="http://www.w3.org/2000/svg" xmlns:xlink="http://www.w3.org/1999/xlink"><defs>
    <style>
      .cls-1 {
        fill: #000;
        opacity: 0.6;
        fill-rule: evenodd;
      }
    </style>
  
    <style>
      .cls-1 {
        fill: #000;
        opacity: 0.6;
        fill-rule: evenodd;
      }
    </style>
  
    <style>
      .cls-1 {
        fill: #000;
        opacity: 0.56;
        fill-rule: evenodd;
      }
    </style>
  
    <style>
      .cls-1 {
        fill: #000;
        opacity: 0.6;
        fill-rule: evenodd;
      }
    </style>
  
    <style>
      .cls-1 {
        fill: #000;
        fill-rule: evenodd;
      }
    </style>
  </defs><symbol id="arrow-left" viewBox="0 0 38.687 36.969">
  <path id="arrow_left" data-name="Left Arrow" d="M123.158,49.587l18.47,18.469-3.315,3.315L119.843,52.9Zm18.47-11.866-18.47,18.469-3.315-3.315,18.47-18.469Zm16.909,17.332H126.156V50.366h32.381v4.688Z" transform="translate(-119.844 -34.406)"/>
</symbol><symbol id="arrow-right" viewBox="0 0 59.374 56.719">
  <path id="arrow" data-name=" &gt; &#x41E;&#x431;&#x44B;&#x447;&#x43D;&#x43E;&#x435;" class="cls-1" d="M496.978,250.958l-28.336-28.335,5.086-5.086,28.335,28.335Zm-28.336,18.205,28.336-28.336,5.085,5.086-28.335,28.336ZM442.7,242.572h49.679v7.193H442.7v-7.193Z" transform="translate(-442.688 -217.531)"/>
</symbol><symbol id="icon-fb" viewBox="0 0 28.219 28.219" preserveAspectRatio="xMidYMid">
  
  <path d="M14.119,28.229 C6.324,28.229 0.005,21.910 0.005,14.115 C0.005,6.320 6.324,0.001 14.119,0.001 C21.914,0.001 28.233,6.320 28.233,14.115 C28.233,21.910 21.914,28.229 14.119,28.229 ZM17.635,5.460 L15.124,5.460 C12.161,5.460 11.452,6.850 11.452,9.365 L11.452,11.343 L9.753,11.343 L9.753,14.121 L11.452,14.121 L11.452,22.478 L14.815,22.478 L14.815,14.121 L17.281,14.121 L17.538,11.343 L14.815,11.343 L14.819,9.673 C14.819,8.869 14.895,8.544 16.049,8.544 L17.635,8.544 L17.635,5.460 Z" class="cls-1"/>
</symbol><symbol id="icon-ig" viewBox="0 0 28.219 28.219" preserveAspectRatio="xMidYMid">
  
  <path d="M14.103,28.229 C6.308,28.229 -0.011,21.910 -0.011,14.115 C-0.011,6.320 6.308,0.001 14.103,0.001 C21.898,0.001 28.217,6.320 28.217,14.115 C28.217,21.910 21.898,28.229 14.103,28.229 ZM21.313,8.595 C21.313,7.728 20.611,7.026 19.744,7.026 L8.656,7.026 C7.789,7.026 7.087,7.728 7.087,8.595 L7.086,19.668 C7.086,20.535 7.789,21.237 8.656,21.237 L19.744,21.237 C20.611,21.237 21.313,20.535 21.313,19.668 L21.313,8.595 ZM19.225,11.402 L17.548,11.402 C17.245,11.402 16.999,11.156 16.999,10.852 L16.999,9.175 C16.999,8.871 17.245,8.625 17.548,8.625 L19.225,8.625 C19.529,8.625 19.775,8.871 19.775,9.175 L19.775,10.852 C19.775,11.156 19.529,11.402 19.225,11.402 ZM14.222,16.714 C12.812,16.714 11.670,15.570 11.670,14.161 C11.670,12.750 12.812,11.608 14.222,11.608 C15.633,11.608 16.980,12.637 16.980,14.160 C16.980,15.684 15.633,16.714 14.222,16.714 ZM14.222,18.591 C16.666,18.591 18.648,16.609 18.648,14.165 C18.648,13.781 18.599,13.407 18.507,13.052 C19.301,13.053 19.748,13.051 19.748,13.051 L19.748,19.155 C19.748,19.458 19.502,19.705 19.198,19.705 L9.246,19.705 C8.942,19.705 8.696,19.458 8.696,19.155 L8.696,13.051 C8.696,13.051 8.947,13.052 9.937,13.052 C9.845,13.407 9.795,13.781 9.795,14.165 C9.795,16.609 11.777,18.591 14.222,18.591 Z" class="cls-1"/>
</symbol><symbol id="icon-tw" viewBox="0 0 28.219 28.25" preserveAspectRatio="xMidYMid">
  
  <path d="M14.101,28.236 C6.306,28.236 -0.013,21.917 -0.013,14.122 C-0.013,6.327 6.306,0.008 14.101,0.008 C21.895,0.008 28.214,6.327 28.214,14.122 C28.214,21.917 21.895,28.236 14.101,28.236 ZM21.878,8.435 C21.245,8.811 20.544,9.083 19.798,9.230 C19.200,8.593 18.349,8.195 17.406,8.195 C15.597,8.195 14.130,9.662 14.130,11.471 C14.130,11.728 14.159,11.978 14.215,12.218 C11.493,12.081 9.079,10.777 7.463,8.795 C7.181,9.279 7.019,9.842 7.019,10.442 C7.019,11.578 7.598,12.581 8.477,13.169 C7.940,13.152 7.434,13.004 6.993,12.759 C6.993,12.773 6.993,12.786 6.993,12.800 C6.993,14.387 8.122,15.711 9.620,16.012 C9.346,16.087 9.056,16.127 8.757,16.127 C8.546,16.127 8.341,16.107 8.141,16.068 C8.558,17.370 9.768,18.317 11.201,18.343 C10.080,19.222 8.668,19.746 7.133,19.746 C6.868,19.746 6.607,19.730 6.351,19.700 C7.801,20.630 9.523,21.172 11.373,21.172 C17.399,21.172 20.694,16.180 20.694,11.851 C20.694,11.709 20.691,11.568 20.684,11.427 C21.325,10.965 21.880,10.388 22.319,9.732 C21.732,9.992 21.100,10.168 20.438,10.247 C21.114,9.842 21.633,9.200 21.878,8.435 Z" class="cls-1"/>
</symbol><symbol id="icon-vk" viewBox="0 0 28.219 28.219" preserveAspectRatio="xMidYMid">
  
  <path d="M14.103,28.229 C6.308,28.229 -0.011,21.910 -0.011,14.115 C-0.011,6.320 6.308,0.001 14.103,0.001 C21.898,0.001 28.217,6.320 28.217,14.115 C28.217,21.910 21.898,28.229 14.103,28.229 ZM18.789,14.437 C18.336,13.946 17.730,13.623 16.976,13.463 L16.976,13.399 C17.500,13.178 17.912,12.836 18.209,12.370 C18.509,11.905 18.658,11.375 18.658,10.778 C18.658,10.262 18.549,9.807 18.333,9.412 C18.117,9.020 17.789,8.703 17.351,8.467 C16.947,8.248 16.513,8.106 16.050,8.039 C15.588,7.968 14.907,7.935 14.010,7.935 L9.689,7.935 L9.689,20.164 L14.584,20.164 C15.434,20.164 16.131,20.088 16.681,19.934 C17.234,19.779 17.739,19.524 18.198,19.163 C18.588,18.860 18.896,18.482 19.126,18.022 C19.356,17.562 19.471,17.027 19.471,16.418 C19.471,15.588 19.244,14.928 18.789,14.437 ZM15.504,17.683 C15.187,17.820 14.873,17.893 14.568,17.904 C14.262,17.916 13.709,17.921 12.911,17.921 L12.745,17.921 L12.745,14.859 L13.312,14.859 C13.858,14.859 14.296,14.862 14.621,14.871 C14.946,14.879 15.204,14.918 15.389,14.992 C15.695,15.100 15.924,15.260 16.079,15.476 C16.233,15.689 16.308,15.984 16.308,16.362 C16.308,16.656 16.244,16.920 16.115,17.153 C15.986,17.386 15.784,17.562 15.504,17.683 ZM14.890,12.578 C14.666,12.681 14.447,12.737 14.237,12.749 C14.026,12.760 13.656,12.765 13.132,12.765 L12.745,12.765 L12.745,10.177 L12.958,10.177 C13.505,10.177 13.917,10.181 14.195,10.189 C14.472,10.197 14.711,10.245 14.912,10.335 C15.128,10.427 15.285,10.579 15.386,10.786 C15.487,10.993 15.538,11.196 15.538,11.394 C15.538,11.661 15.490,11.897 15.397,12.101 C15.305,12.303 15.134,12.462 14.890,12.578 Z" class="cls-1"/>
</symbol><symbol id="logo-htmla" viewBox="0 0 107.624 36.688" preserveAspectRatio="xMidYMid">
  
  <path d="M103.727,29.188 C102.828,31.348 101.653,32.074 100.391,32.074 C100.028,32.074 99.665,32.023 99.302,31.936 L99.302,30.363 C99.579,30.450 99.873,30.484 100.149,30.484 C101.048,30.484 101.722,29.845 102.206,28.549 L102.379,28.134 L98.438,19.769 L100.408,19.769 L103.208,26.025 L105.680,19.769 L107.615,19.769 L103.727,29.188 ZM95.673,22.932 C95.673,21.860 95.033,21.187 94.031,21.187 C93.115,21.187 92.406,21.791 91.974,22.310 C91.992,22.500 92.009,22.690 92.009,22.880 L92.009,28.065 L90.160,28.065 L90.160,22.932 C90.160,21.860 89.520,21.187 88.518,21.187 C87.516,21.187 86.755,21.912 86.323,22.465 L86.323,28.065 L84.474,28.065 L84.474,19.769 L86.116,19.769 L86.116,20.806 C86.565,20.305 87.533,19.545 88.881,19.545 C90.125,19.545 90.989,20.063 91.473,20.875 C92.199,20.149 93.167,19.545 94.377,19.545 C96.571,19.545 97.522,21.169 97.522,22.880 L97.522,28.065 L95.673,28.065 L95.673,22.932 ZM76.351,24.608 C76.558,26.095 78.010,26.717 79.531,26.717 C80.533,26.717 81.449,26.475 82.158,26.129 L82.158,27.719 C81.398,28.083 80.343,28.289 79.185,28.289 C76.645,28.289 74.484,26.838 74.484,23.917 C74.484,20.910 76.766,19.545 78.684,19.545 C81.985,19.545 83.126,22.206 82.590,24.608 L76.351,24.608 ZM78.770,21.083 C77.526,21.083 76.403,21.826 76.334,23.226 L80.931,23.226 C81.035,22.500 80.585,21.083 78.770,21.083 ZM71.028,26.752 C70.388,27.563 69.403,28.289 67.848,28.289 C65.342,28.289 63.735,26.302 63.735,23.917 C63.735,21.532 65.342,19.545 67.848,19.545 C69.300,19.545 70.267,20.184 70.837,20.841 L70.837,15.967 L72.687,15.967 L72.687,28.065 L71.028,28.065 L71.028,26.752 ZM70.820,22.897 C70.423,21.999 69.473,21.169 68.176,21.169 C66.690,21.169 65.601,22.293 65.601,23.917 C65.601,25.541 66.690,26.665 68.176,26.665 C69.473,26.665 70.423,25.835 70.820,24.919 L70.820,22.897 ZM70.837,1.442 L72.687,1.442 L72.687,13.540 L70.837,13.540 L70.837,1.442 ZM66.283,8.407 C66.283,7.336 65.644,6.661 64.641,6.661 C63.725,6.661 63.017,7.266 62.585,7.785 C62.602,7.975 62.619,8.165 62.619,8.355 L62.619,13.540 L60.770,13.540 L60.770,8.407 C60.770,7.336 60.131,6.661 59.128,6.661 C58.126,6.661 57.365,7.387 56.933,7.940 L56.933,13.540 L55.084,13.540 L55.084,5.244 L56.726,5.244 L56.726,6.281 C57.175,5.780 58.143,5.020 59.491,5.020 C60.735,5.020 61.600,5.538 62.083,6.350 C62.809,5.624 63.777,5.020 64.987,5.020 C67.182,5.020 68.132,6.644 68.132,8.355 L68.132,13.540 L66.283,13.540 L66.283,8.407 ZM57.789,21.152 C56.562,21.152 55.543,21.463 54.799,21.791 L54.799,20.098 C55.456,19.873 56.649,19.545 57.979,19.545 C60.330,19.545 61.816,20.668 61.816,23.174 L61.816,26.147 C61.816,26.613 62.093,26.752 62.421,26.752 C62.611,26.752 62.801,26.699 62.974,26.648 L62.974,27.978 C62.628,28.116 62.214,28.186 61.799,28.186 C61.038,28.186 60.434,27.892 60.140,27.218 C59.327,27.875 58.308,28.289 57.011,28.289 C55.508,28.289 54.108,27.460 54.108,25.749 C54.108,23.623 56.078,22.967 57.807,22.967 C58.515,22.967 59.310,23.070 59.967,23.208 L59.967,22.915 C59.967,21.878 59.206,21.152 57.789,21.152 ZM58.170,24.263 C57.115,24.263 56.009,24.591 56.009,25.628 C56.009,26.440 56.735,26.855 57.565,26.855 C58.446,26.855 59.310,26.526 59.967,25.870 L59.967,24.470 C59.466,24.366 58.757,24.263 58.170,24.263 ZM47.878,11.017 L47.878,6.869 L46.392,6.869 L46.392,5.244 L47.878,5.244 L47.878,2.739 L49.710,2.289 L49.710,5.244 L52.717,5.244 L52.717,6.869 L49.710,6.869 L49.710,10.671 C49.710,11.760 50.211,12.123 51.283,12.123 C51.888,12.123 52.441,12.002 52.959,11.794 L52.959,13.385 C52.337,13.609 51.542,13.747 50.730,13.747 C49.122,13.747 47.878,12.952 47.878,11.017 ZM50.306,19.545 C51.239,19.545 52.138,19.752 52.864,20.184 L52.864,21.878 C52.259,21.446 51.412,21.187 50.565,21.187 C49.096,21.187 47.610,21.964 47.610,23.917 C47.610,25.801 49.044,26.648 50.531,26.648 C51.412,26.648 52.294,26.388 52.950,26.008 L52.950,27.719 C52.155,28.099 51.257,28.289 50.202,28.289 C47.990,28.289 45.726,26.941 45.726,23.986 C45.726,20.893 48.094,19.545 50.306,19.545 ZM42.131,27.218 C41.319,27.875 40.300,28.289 39.003,28.289 C37.500,28.289 36.100,27.460 36.100,25.749 C36.100,23.623 38.070,22.967 39.798,22.967 C40.507,22.967 41.302,23.070 41.959,23.208 L41.959,22.915 C41.959,21.878 41.198,21.152 39.781,21.152 C38.554,21.152 37.534,21.463 36.791,21.791 L36.791,20.098 C37.448,19.873 38.640,19.545 39.971,19.545 C42.321,19.545 43.808,20.668 43.808,23.174 L43.808,26.147 C43.808,26.613 44.085,26.752 44.413,26.752 C44.603,26.752 44.793,26.699 44.966,26.648 L44.966,27.978 C44.620,28.116 44.205,28.186 43.791,28.186 C43.030,28.186 42.425,27.892 42.131,27.218 ZM41.959,24.470 C41.457,24.366 40.749,24.263 40.161,24.263 C39.107,24.263 38.001,24.591 38.001,25.628 C38.001,26.440 38.727,26.855 39.556,26.855 C40.438,26.855 41.302,26.526 41.959,25.870 L41.959,24.470 ZM42.797,8.649 C42.797,7.301 41.967,6.661 40.861,6.661 C39.807,6.661 39.012,7.370 38.545,8.044 L38.545,13.540 L36.696,13.540 L36.696,1.442 L38.545,1.442 L38.545,6.160 C39.150,5.538 40.101,5.020 41.224,5.020 C43.315,5.020 44.646,6.437 44.646,8.407 L44.646,13.540 L42.797,13.540 L42.797,8.649 ZM-0.001,28.065 L-0.001,1.518 L14.483,-0.000 L14.635,0.015 L28.967,1.518 L28.967,28.065 L14.483,36.683 L-0.001,28.065 ZM27.072,3.224 L14.483,1.904 L1.894,3.224 L1.894,13.183 L14.412,5.730 L14.412,5.728 L14.414,5.729 L14.415,5.728 L14.415,5.730 L27.072,13.192 L27.072,3.224 ZM14.446,18.236 L17.636,20.115 L17.660,20.101 L18.657,19.434 L14.433,16.922 L14.446,15.610 L19.796,18.793 L20.717,18.250 L20.857,18.168 L20.914,18.134 L14.433,14.280 L14.446,12.968 L22.028,17.478 L23.618,16.542 L27.062,14.512 L14.412,7.140 L14.412,7.139 L1.921,14.647 L14.394,22.062 L16.527,20.781 L14.433,19.548 L14.446,18.236 ZM27.072,15.924 L23.188,18.243 L23.188,21.540 L23.188,22.081 L23.188,22.531 L23.199,22.525 L23.199,23.844 L14.483,29.059 L5.850,23.870 L5.862,22.558 L14.493,27.692 L14.471,26.304 L5.838,21.115 L5.851,19.802 L14.450,24.920 L14.429,23.568 L1.894,16.107 L1.894,26.988 L14.483,34.479 L27.072,26.988 L27.072,15.924 Z" class="cls-1"/>
</symbol><symbol id="logo-small" viewBox="0 0 101 44">
  <path fill-rule="evenodd" d="M57.007,19.638 L57.007,0.979 L61.000,0.979 L61.000,16.085 L69.414,16.085 L69.414,19.638 L57.007,19.638 ZM53.793,19.638 L41.519,19.638 C41.284,19.638 41.093,19.448 41.093,19.213 L41.093,1.404 C41.093,1.169 41.284,0.979 41.519,0.979 L53.554,0.979 C53.789,0.979 53.979,1.169 53.979,1.404 L53.979,4.189 C53.979,4.424 53.789,4.614 53.554,4.614 L45.087,4.614 L45.087,8.368 L51.574,8.368 C51.809,8.368 51.999,8.558 51.999,8.793 L51.999,11.496 C51.999,11.731 51.809,11.921 51.574,11.921 L45.087,11.921 L45.087,16.085 L53.793,16.085 C54.028,16.085 54.218,16.275 54.218,16.510 L54.218,19.213 C54.218,19.448 54.028,19.638 53.793,19.638 ZM38.649,19.638 L35.030,19.638 C34.877,19.638 34.737,19.553 34.666,19.417 L31.775,13.816 C31.623,13.521 31.200,13.521 31.047,13.816 L28.156,19.417 C28.086,19.553 27.945,19.638 27.792,19.638 L24.173,19.638 C23.862,19.638 23.664,19.305 23.814,19.032 L28.879,9.800 L24.394,1.626 C24.245,1.353 24.442,1.020 24.754,1.020 L28.171,1.020 C28.323,1.020 28.462,1.103 28.533,1.237 L31.098,6.054 C31.252,6.344 31.667,6.344 31.821,6.054 L34.386,1.237 C34.457,1.103 34.596,1.020 34.747,1.020 L38.165,1.020 C38.476,1.020 38.674,1.353 38.524,1.626 L33.992,9.888 L39.008,19.032 C39.158,19.305 38.961,19.638 38.649,19.638 ZM21.023,19.597 L17.896,19.597 C17.647,19.597 17.446,19.396 17.446,19.147 L17.446,1.388 C17.446,1.140 17.647,0.938 17.896,0.938 L21.023,0.938 C21.272,0.938 21.473,1.140 21.473,1.388 L21.473,19.147 C21.473,19.396 21.272,19.597 21.023,19.597 ZM11.922,14.209 L4.434,14.209 L4.434,19.249 C4.434,19.475 4.251,19.659 4.024,19.659 L0.850,19.659 C0.624,19.659 0.440,19.475 0.440,19.249 L0.440,1.409 C0.440,1.183 0.624,0.999 0.850,0.999 L11.922,0.999 C13.272,0.999 14.367,2.094 14.367,3.444 L14.367,11.764 C14.367,13.114 13.272,14.209 11.922,14.209 ZM10.373,5.461 C10.373,5.005 10.003,4.635 9.547,4.635 L4.434,4.635 L4.434,10.568 L9.547,10.568 C10.003,10.568 10.373,10.198 10.373,9.741 L10.373,5.461 Z"/>
  <path fill-rule="evenodd" style="transform: translateY(22px)" d="M100.019,18.615 L96.744,18.615 C96.581,18.615 96.432,18.521 96.363,18.373 L93.788,12.888 L90.332,12.888 L90.332,18.284 C90.332,18.517 90.144,18.706 89.911,18.706 L86.760,18.706 C86.527,18.706 86.339,18.517 86.339,18.284 L86.339,0.468 C86.339,0.235 86.527,0.047 86.760,0.047 L97.748,0.047 C99.138,0.047 100.265,1.174 100.265,2.564 L100.265,10.685 C100.265,11.901 99.279,12.888 98.062,12.888 L100.403,18.019 C100.530,18.298 100.326,18.615 100.019,18.615 ZM96.272,4.504 C96.272,4.050 95.903,3.682 95.449,3.682 L90.332,3.682 L90.332,9.247 L95.449,9.247 C95.903,9.247 96.272,8.878 96.272,8.424 L96.272,4.504 ZM83.126,18.651 L70.897,18.651 C70.650,18.651 70.450,18.451 70.450,18.204 L70.450,0.440 C70.450,0.192 70.650,-0.008 70.897,-0.008 L82.887,-0.008 C83.135,-0.008 83.335,0.192 83.335,0.440 L83.335,3.180 C83.335,3.427 83.135,3.627 82.887,3.627 L74.490,3.627 C74.464,3.627 74.443,3.648 74.443,3.674 L74.443,7.335 C74.443,7.360 74.464,7.381 74.490,7.381 L80.908,7.381 C81.155,7.381 81.355,7.582 81.355,7.829 L81.355,10.487 C81.355,10.734 81.155,10.934 80.908,10.934 L74.443,10.934 L74.443,15.098 L83.126,15.098 C83.374,15.098 83.574,15.298 83.574,15.546 L83.574,18.204 C83.574,18.451 83.374,18.651 83.126,18.651 ZM67.806,3.607 L63.258,3.607 L63.258,18.250 C63.258,18.472 63.078,18.651 62.856,18.651 L59.706,18.651 C59.484,18.651 59.305,18.472 59.305,18.250 L59.305,3.607 L54.763,3.607 C54.542,3.607 54.362,3.427 54.362,3.206 L54.362,0.393 C54.362,0.172 54.542,-0.008 54.763,-0.008 L67.806,-0.008 C68.027,-0.008 68.207,0.172 68.207,0.393 L68.207,3.206 C68.207,3.427 68.027,3.607 67.806,3.607 ZM51.904,18.665 L47.640,18.665 C47.561,18.665 47.488,18.620 47.453,18.548 L41.860,7.192 C41.762,6.994 41.463,7.063 41.463,7.285 L41.463,18.456 C41.463,18.571 41.369,18.665 41.254,18.665 L37.698,18.665 C37.583,18.665 37.489,18.571 37.489,18.456 L37.489,0.215 C37.489,0.099 37.583,0.006 37.698,0.006 L42.179,0.006 C42.260,0.006 42.333,0.052 42.368,0.125 L47.724,11.352 C47.821,11.553 48.123,11.485 48.123,11.262 L48.123,0.215 C48.123,0.099 48.216,0.006 48.332,0.006 L51.904,0.006 C52.019,0.006 52.113,0.099 52.113,0.215 L52.113,18.456 C52.113,18.571 52.019,18.665 51.904,18.665 ZM31.016,18.665 L21.729,18.665 C20.365,18.665 19.259,17.559 19.259,16.195 L19.259,0.416 C19.259,0.189 19.443,0.006 19.670,0.006 L22.876,0.006 C23.103,0.006 23.287,0.189 23.287,0.416 L23.287,14.343 C23.287,14.767 23.631,15.112 24.056,15.112 L28.689,15.112 C29.114,15.112 29.458,14.767 29.458,14.343 L29.458,0.416 C29.458,0.189 29.642,0.006 29.869,0.006 L33.076,0.006 C33.302,0.006 33.486,0.189 33.486,0.416 L33.486,16.195 C33.486,17.559 32.380,18.665 31.016,18.665 ZM14.813,18.665 L11.588,18.665 C11.366,18.665 11.187,18.485 11.187,18.264 L11.187,11.112 L4.974,11.112 L4.974,18.264 C4.974,18.485 4.795,18.665 4.573,18.665 L1.348,18.665 C1.126,18.665 0.947,18.485 0.947,18.264 L0.947,0.407 C0.947,0.185 1.126,0.006 1.348,0.006 L4.573,0.006 C4.795,0.006 4.974,0.185 4.974,0.407 L4.974,7.559 L11.187,7.559 L11.187,0.407 C11.187,0.185 11.366,0.006 11.588,0.006 L14.813,0.006 C15.035,0.006 15.214,0.185 15.214,0.407 L15.214,18.264 C15.214,18.485 15.035,18.665 14.813,18.665 Z"/>
</symbol></svg>